<svg height="384pt" viewBox="0 0 384 384" width="384pt" xmlns="http://www.w3.org/2000/svg"><path d="M22.176 142.902c8.223 3.227 17.512-.855 20.727-9.078 24.168-61.855 82.691-101.824 149.098-101.824s124.93 39.969 149.098 101.824c2.461 6.32 8.512 10.176 14.91 10.176 1.93 0 3.902-.352 5.816-1.105 8.23-3.215 12.297-12.496 9.086-20.727-29.016-74.207-99.23-122.168-178.91-122.168s-149.895 47.961-178.902 122.176c-3.219 8.23.848 17.512 9.078 20.727zm0 0M319.113 177.48c-7.242-63.762-61.449-113.48-127.113-113.48s-119.871 49.719-127.113 113.48c-36.902 7.086-64.887 39.574-64.887 78.52 0 44.113 35.887 80 80 80 8.832 0 16-7.168 16-16v-128c0-52.938 43.063-96 96-96s96 43.063 96 96v144c0 8.824-7.176 16-16 16h-32c-8.824 0-16-7.176-16-16 0-8.832-7.168-16-16-16s-16 7.168-16 16c0 26.473 21.527 48 48 48h32c26.473 0 48-21.527 48-48v-1.609c36.473-7.438 64-39.758 64-78.391 0-38.945-27.984-71.434-64.887-78.52zm-287.113 78.52c0-20.855 13.383-38.594 32-45.199v90.398c-18.617-6.605-32-24.344-32-45.199zm288 45.199v-90.398c18.617 6.605 32 24.344 32 45.199s-13.383 38.594-32 45.199zm0 0"/></svg>