<svg xmlns="http://www.w3.org/2000/svg" viewBox="0 0 334.877 334.877" enable-background="new 0 0 334.877 334.877"><path d="M333.196 155.999h-16.067v-73.909c0-17.719-14.415-32.134-32.134-32.134h-21.761l-22.269-40.039c-3.394-6.119-9.853-9.917-16.858-9.917-3.265 0-6.504.842-9.364 2.429l-85.464 47.526h-95.464c-17.719 0-32.134 14.415-32.134 32.134v220.653c0 17.719 14.415 32.134 32.134 32.134h251.18c17.719 0 32.134-14.415 32.134-32.134v-64.802h16.067v-81.941zm-48.201-93.19c9.897 0 17.982 7.519 19.068 17.14h-24.152l-9.525-17.14h14.609zm-63.999-49.146c3.014-1.69 7.07-.508 8.734 2.494l35.476 63.786h-163.408l119.198-66.28zm83.279 289.079c0 10.63-8.651 19.281-19.281 19.281h-251.179c-10.63 0-19.281-8.651-19.281-19.281v-220.652c0-10.63 8.651-19.281 19.281-19.281h72.353l-30.823 17.141h-37.513c-3.554 0-6.427 2.879-6.427 6.427s2.873 6.427 6.427 6.427h266.443v63.201h-46.999c-21.826 0-39.589 17.764-39.589 39.589v2.764c0 21.826 17.764 39.589 39.589 39.589h46.999v64.795zm16.067-77.655h-63.066c-14.743 0-26.736-11.992-26.736-26.736v-2.764c0-14.743 11.992-26.736 26.736-26.736h63.066v56.236zm-43.381-27.59c0 7.841-6.35 14.19-14.19 14.19-7.841 0-14.19-6.35-14.19-14.19s6.35-14.19 14.19-14.19c7.841-.001 14.19 6.355 14.19 14.19z"/></svg>