<svg xmlns="http://www.w3.org/2000/svg" viewBox="0 0 563.43 563.43" enable-background="new 0 0 563.43 563.43"><path d="M280.79 314.559c83.266 0 150.803-67.538 150.803-150.803s-67.538-150.341-150.803-150.341-150.803 67.538-150.803 150.341 67.537 150.803 150.803 150.803zm0-261.824c61.061 0 111.021 49.959 111.021 111.021s-49.96 111.02-111.021 111.02-111.021-49.959-111.021-111.021 49.959-111.02 111.021-111.02zM19.891 550.015h523.648c11.102 0 19.891-8.789 19.891-19.891 0-104.082-84.653-189.198-189.198-189.198h-185.034c-104.082 0-189.198 84.653-189.198 189.198 0 11.102 8.789 19.891 19.891 19.891zm169.307-169.307h185.034c75.864 0 138.313 56.436 148.028 129.524h-481.09c9.714-72.625 72.164-129.524 148.028-129.524z"/></svg>