<svg xmlns="http://www.w3.org/2000/svg" viewBox="0 0 476.3 476.3"><path d="M411.75 250.2h-185.6v-185.6c0-7.5-6-13.5-13.5-13.5-117.2 0-212.6 95.4-212.6 212.6s95.4 212.6 212.6 212.6 212.6-95.4 212.6-212.6c0-7.4-6.1-13.5-13.5-13.5zm-199.1 199.1c-102.3 0-185.6-83.3-185.6-185.6 0-97.8 76-178.2 172.1-185.1v185.1c0 7.5 6 13.5 13.5 13.5h185.1c-6.9 96.1-87.3 172.1-185.1 172.1zM476.25 211.9c-.2-51.6-19.1-101.3-53.2-140-40.4-45.7-98.4-71.9-159.4-71.9-7.5 0-13.5 6-13.5 13.5v199.1c0 7.5 6 13.5 13.5 13.5h199.1c7.5 0 13.5-6 13.5-13.5v-.7zm-199.1-12.7v-171.6c48.2 3.5 93.4 25.8 125.6 62.3 27 30.5 43 68.9 46 109.3h-171.6z"/></svg>