<?xml version="1.0" encoding="UTF-8"?>
<!DOCTYPE svg  PUBLIC '-//W3C//DTD SVG 1.1//EN'  'http://www.w3.org/Graphics/SVG/1.1/DTD/svg11.dtd'>
<svg enable-background="new 0 0 32 32" version="1.1" viewBox="0 0 32 32" xml:space="preserve" xmlns="http://www.w3.org/2000/svg">
			<path d="m30.276 1.722c-1.108-1.111-2.586-1.722-4.155-1.722s-3.045 0.61-4.154 1.72l-17.673 17.571c-0.105 0.104-0.185 0.229-0.235 0.367l-4 11c-0.129 0.355-0.046 0.756 0.215 1.031 0.192 0.202 0.455 0.311 0.726 0.311 0.098 0 0.196-0.014 0.293-0.044l9.949-3.052c0.156-0.047 0.298-0.133 0.414-0.248l18.621-18.621c1.112-1.109 1.723-2.587 1.723-4.157-1e-3 -1.569-0.611-3.046-1.724-4.156zm-20.184 25.443l-3.724 1.144c-0.217-0.637-0.555-1.201-1.016-1.662-0.401-0.399-0.866-0.709-1.356-0.961l1.704-4.686h2.3v2c0 0.553 0.447 1 1 1h1.765l-0.673 3.165zm14.72-14.494l-12.184 12.184 0.35-1.647c0.062-0.296-0.012-0.603-0.202-0.837-0.19-0.235-0.475-0.371-0.776-0.371h-2v-2c0-0.552-0.448-1-1-1h-1.578l11.893-11.825 0.012 0.011c0.732-0.733 1.707-1.136 2.742-1.136s2.011 0.403 2.742 1.136 1.138 1.707 1.138 2.743-0.403 2.009-1.137 2.742zm4.05-4.05l-0.932 0.933c-0.09-1.429-0.683-2.761-1.703-3.782-1.021-1.022-2.354-1.614-3.787-1.703l0.938-0.931 2e-3 -2e-3c0.73-0.733 1.705-1.136 2.741-1.136s2.01 0.403 2.741 1.136c0.734 0.733 1.138 1.707 1.138 2.742 0 1.037-0.402 2.011-1.138 2.743zm-6.569-0.328l-10 10c-0.391 0.391-0.391 1.023 0 1.414 0.194 0.195 0.451 0.293 0.707 0.293s0.511-0.098 0.707-0.293l10-10c0.391-0.391 0.391-1.023 0-1.414-0.392-0.391-1.023-0.391-1.414 0z"/>
</svg>
