<svg xmlns="http://www.w3.org/2000/svg" xmlns:xlink="http://www.w3.org/1999/xlink"><symbol id="icon-home" viewBox="0 0 486.988 486.988"><path d="M16.822 284.968h39.667v158.667c0 9.35 7.65 17 17 17h116.167c9.35 0 17-7.65 17-17v-116.167h70.833v116.167c0 9.35 7.65 17 17 17h110.5c9.35 0 17-7.65 17-17v-158.667h48.167c6.8 0 13.033-4.25 15.583-10.483 2.55-6.233 1.133-13.6-3.683-18.417l-221.567-224.683c-6.517-6.517-17.283-6.8-23.8-.283l-231.483 224.683c-5.1 4.817-6.517 12.183-3.967 18.7 2.55 6.516 8.783 10.483 15.583 10.483zm231.2-217.6l181.333 183.6h-24.367c-9.35 0-17 7.65-17 17v158.667h-76.5v-116.167c0-9.35-7.65-17-17-17h-104.832c-9.35 0-17 7.65-17 17v116.167h-82.167v-158.667c0-9.35-7.65-17-17-17h-14.733l189.266-183.6z"/></symbol><symbol id="icon-info" viewBox="0 0 512 512"><circle cx="256" cy="378.5" r="25"/><path d="M256 0c-141.484 0-256 114.497-256 256 0 141.484 114.497 256 256 256 141.484 0 256-114.497 256-256 0-141.484-114.497-256-256-256zm0 472c-119.377 0-216-96.607-216-216 0-119.377 96.607-216 216-216 119.377 0 216 96.607 216 216 0 119.377-96.607 216-216 216zM256 128.5c-44.112 0-80 35.888-80 80 0 11.046 8.954 20 20 20s20-8.954 20-20c0-22.056 17.944-40 40-40s40 17.944 40 40-17.944 40-40 40c-11.046 0-20 8.954-20 20v50c0 11.046 8.954 20 20 20s20-8.954 20-20v-32.531c34.466-8.903 60-40.26 60-77.469 0-44.112-35.888-80-80-80z"/></symbol><symbol id="icon-logout" viewBox="0 0 512 512"><path d="M255.15 468.625h-191.363c-11.737 0-21.262-9.526-21.262-21.262v-382.725c0-11.737 9.526-21.262 21.262-21.262h191.363c11.758 0 21.262-9.504 21.262-21.262s-9.504-21.264-21.262-21.264h-191.363c-35.168 0-63.787 28.62-63.787 63.788v382.724c0 35.168 28.619 63.787 63.787 63.787h191.363c11.758 0 21.262-9.504 21.262-21.262 0-11.758-9.504-21.262-21.262-21.262zM505.664 240.861l-129.276-127.575c-8.335-8.25-21.815-8.143-30.065.213s-8.165 21.815.213 30.065l92.385 91.173h-247.559c-11.758 0-21.262 9.504-21.262 21.262 0 11.758 9.504 21.263 21.262 21.263h247.559l-92.385 91.173c-8.377 8.25-8.441 21.709-.213 30.065 4.167 4.21 9.653 6.336 15.139 6.336 5.401 0 10.801-2.041 14.926-6.124l129.276-127.575c4.04-3.997 6.336-9.441 6.336-15.139 0-5.696-2.275-11.118-6.336-15.137z"/></symbol><symbol id="icon-megaphone" viewBox="0 0 512 512"><path d="M449.511 137.648v-82.38c0-9.072-4.668-17.227-12.487-21.814-7.849-4.605-17.29-4.7-25.251-.247-76.024 42.516-158.725 67.345-245.805 73.802-.667.049-79.372.393-79.372.393-19.767 0-36.105 14.923-38.366 34.091h-16.155c-17.685 0-32.075 14.388-32.075 32.074v70.468c0 17.686 14.39 32.075 32.075 32.075h16.153c1.628 13.795 10.544 25.383 22.785 30.799l57.485 158.648c3.593 9.875 13.067 16.511 23.578 16.511h57.687c8.178 0 15.86-3.999 20.551-10.697 4.691-6.7 5.822-15.287 3.03-22.96l-49.389-136.237c80.482 8.361 157.039 32.601 227.817 72.183 3.905 2.184 8.166 3.273 12.42 3.273 4.417-.001 8.83-1.175 12.829-3.521 7.819-4.588 12.489-12.742 12.489-21.816v-82.38c35.201-4.56 62.49-34.709 62.49-71.132 0-36.424-27.289-66.574-62.489-71.133zm-401.56 113.724h-15.876c-4.047 0-7.338-3.291-7.338-7.338v-70.467c0-4.044 3.291-7.337 7.338-7.337h15.876v85.142zm32.979 32.873c-4.85-2.174-8.242-7.039-8.242-12.688v-125.513h.001c0-7.667 6.239-13.905 13.906-13.905h67.333v153.324s-67.92-.026-68.213-.044c-2.481-.287-3.003-.415-4.785-1.174zm129.161 172.608c.04.101.066.173-.041.324-.105.151-.183.151-.288.151h-57.687c-.147 0-.282-.093-.327-.215l-53.233-146.914h58.411l53.165 146.654zm214.683-94.559c0 .179 0 .322-.267.479-.318.184-.508.079-.66-.006-76.034-42.52-158.469-68.045-245.182-75.96v-156.04c86.72-7.927 169.155-33.454 245.179-75.97.156-.085.349-.19.663-.006.267.157.267.298.267.477v307.026zm24.737-107.421v-92.185c21.503 4.314 37.752 23.339 37.752 46.092 0 22.754-16.25 41.78-37.752 46.093z"/></symbol><symbol id="icon-music" viewBox="0 0 384 384"><path d="M22.176 142.902c8.223 3.227 17.512-.855 20.727-9.078 24.168-61.855 82.691-101.824 149.098-101.824s124.93 39.969 149.098 101.824c2.461 6.32 8.512 10.176 14.91 10.176 1.93 0 3.902-.352 5.816-1.105 8.23-3.215 12.297-12.496 9.086-20.727-29.016-74.207-99.23-122.168-178.91-122.168s-149.895 47.961-178.902 122.176c-3.219 8.23.848 17.512 9.078 20.727zm0 0M319.113 177.48c-7.242-63.762-61.449-113.48-127.113-113.48s-119.871 49.719-127.113 113.48c-36.902 7.086-64.887 39.574-64.887 78.52 0 44.113 35.887 80 80 80 8.832 0 16-7.168 16-16v-128c0-52.938 43.063-96 96-96s96 43.063 96 96v144c0 8.824-7.176 16-16 16h-32c-8.824 0-16-7.176-16-16 0-8.832-7.168-16-16-16s-16 7.168-16 16c0 26.473 21.527 48 48 48h32c26.473 0 48-21.527 48-48v-1.609c36.473-7.438 64-39.758 64-78.391 0-38.945-27.984-71.434-64.887-78.52zm-287.113 78.52c0-20.855 13.383-38.594 32-45.199v90.398c-18.617-6.605-32-24.344-32-45.199zm288 45.199v-90.398c18.617 6.605 32 24.344 32 45.199s-13.383 38.594-32 45.199zm0 0"/></symbol><symbol id="icon-pie" viewBox="0 0 476.3 476.3"><path d="M411.75 250.2h-185.6v-185.6c0-7.5-6-13.5-13.5-13.5-117.2 0-212.6 95.4-212.6 212.6s95.4 212.6 212.6 212.6 212.6-95.4 212.6-212.6c0-7.4-6.1-13.5-13.5-13.5zm-199.1 199.1c-102.3 0-185.6-83.3-185.6-185.6 0-97.8 76-178.2 172.1-185.1v185.1c0 7.5 6 13.5 13.5 13.5h185.1c-6.9 96.1-87.3 172.1-185.1 172.1zM476.25 211.9c-.2-51.6-19.1-101.3-53.2-140-40.4-45.7-98.4-71.9-159.4-71.9-7.5 0-13.5 6-13.5 13.5v199.1c0 7.5 6 13.5 13.5 13.5h199.1c7.5 0 13.5-6 13.5-13.5v-.7zm-199.1-12.7v-171.6c48.2 3.5 93.4 25.8 125.6 62.3 27 30.5 43 68.9 46 109.3h-171.6z"/></symbol><symbol id="icon-pie.svg" viewBox="0 0 476.3 476.3"><path d="M411.75 250.2h-185.6v-185.6c0-7.5-6-13.5-13.5-13.5-117.2 0-212.6 95.4-212.6 212.6s95.4 212.6 212.6 212.6 212.6-95.4 212.6-212.6c0-7.4-6.1-13.5-13.5-13.5zm-199.1 199.1c-102.3 0-185.6-83.3-185.6-185.6 0-97.8 76-178.2 172.1-185.1v185.1c0 7.5 6 13.5 13.5 13.5h185.1c-6.9 96.1-87.3 172.1-185.1 172.1zM476.25 211.9c-.2-51.6-19.1-101.3-53.2-140-40.4-45.7-98.4-71.9-159.4-71.9-7.5 0-13.5 6-13.5 13.5v199.1c0 7.5 6 13.5 13.5 13.5h199.1c7.5 0 13.5-6 13.5-13.5v-.7zm-199.1-12.7v-171.6c48.2 3.5 93.4 25.8 125.6 62.3 27 30.5 43 68.9 46 109.3h-171.6z"/></symbol><symbol id="icon-profile" viewBox="0 0 563.43 563.43"><path d="M280.79 314.559c83.266 0 150.803-67.538 150.803-150.803s-67.538-150.341-150.803-150.341-150.803 67.538-150.803 150.341 67.537 150.803 150.803 150.803zm0-261.824c61.061 0 111.021 49.959 111.021 111.021s-49.96 111.02-111.021 111.02-111.021-49.959-111.021-111.021 49.959-111.02 111.021-111.02zM19.891 550.015h523.648c11.102 0 19.891-8.789 19.891-19.891 0-104.082-84.653-189.198-189.198-189.198h-185.034c-104.082 0-189.198 84.653-189.198 189.198 0 11.102 8.789 19.891 19.891 19.891zm169.307-169.307h185.034c75.864 0 138.313 56.436 148.028 129.524h-481.09c9.714-72.625 72.164-129.524 148.028-129.524z"/></symbol><symbol id="icon-shop" viewBox="0 0 486.569 486.569"><path d="M146.069 320.369h268.1c30.4 0 55.2-24.8 55.2-55.2v-114c0-.2 0-.4-.1-.6l-.1-.7s-.1-.4-.1-.6c-.1-.2-.1-.4-.2-.7l-.2-.6-.2-.6c-.1-.2-.2-.4-.3-.7-.1-.2-.2-.4-.3-.5l-.3-.6-.3-.5-.4-.6c-.1-.2-.2-.3-.4-.5l-.4-.5s-.3-.3-.4-.5l-.4-.4-.5-.5-.5-.4-.6-.4-.5-.3s-.4-.2-.6-.4l-.6-.3-.6-.3-.6-.3s-.4-.1-.6-.2c-.2-.1-.5-.2-.7-.2s-.4-.1-.5-.1c-.3-.1-.5-.1-.8-.1-.1 0-.2-.1-.4-.1l-339.8-46.9v-47.4c0-.5 0-1-.1-1.4 0-.1 0-.2-.1-.4l-.1-.9-.2-.8-.1-.5-.3-.9-.1-.4c-.1-.3-.2-.5-.4-.8l-.2-.4c-.1-.2-.2-.4-.4-.6l-.3-.5s-.2-.3-.3-.5-.3-.4-.4-.6l-.3-.3-.6-.6-.3-.3c-.2-.2-.4-.4-.7-.6l-.4-.3-.6-.5c-.3-.2-.6-.4-.8-.5l-.3-.2-1.3-.6-73.7-31c-6.9-2.9-14.8.3-17.7 7.2s.3 14.8 7.2 17.7l65.4 27.6v295.8c0 28 21 51.2 48.1 54.7-4.9 8.2-7.8 17.8-7.8 28 0 30.1 24.5 54.5 54.5 54.5s54.5-24.5 54.5-54.5c0-10-2.7-19.5-7.5-27.5h121.4c-4.8 8.1-7.5 17.5-7.5 27.5 0 30.1 24.5 54.5 54.5 54.5s54.5-24.5 54.5-54.5-24.5-54.5-54.5-54.5h-255c-15.6 0-28.2-12.7-28.2-28.2v-36.6c8.2 4.8 17.9 7.6 28.2 7.6zm67.2 111.6c0 15.2-12.4 27.5-27.5 27.5s-27.5-12.4-27.5-27.5 12.4-27.5 27.5-27.5 27.5 12.3 27.5 27.5zm215.4 0c0 15.2-12.4 27.5-27.5 27.5s-27.5-12.4-27.5-27.5 12.4-27.5 27.5-27.5 27.5 12.3 27.5 27.5zm-14.5-138.6h-268.1c-15.6 0-28.2-12.7-28.2-28.2v-145.9l324.5 44.7v101.1c0 15.7-12.7 28.3-28.2 28.3z"/></symbol><symbol id="icon-wallet" viewBox="0 0 334.877 334.877"><path d="M333.196 155.999h-16.067v-73.909c0-17.719-14.415-32.134-32.134-32.134h-21.761l-22.269-40.039c-3.394-6.119-9.853-9.917-16.858-9.917-3.265 0-6.504.842-9.364 2.429l-85.464 47.526h-95.464c-17.719 0-32.134 14.415-32.134 32.134v220.653c0 17.719 14.415 32.134 32.134 32.134h251.18c17.719 0 32.134-14.415 32.134-32.134v-64.802h16.067v-81.941zm-48.201-93.19c9.897 0 17.982 7.519 19.068 17.14h-24.152l-9.525-17.14h14.609zm-63.999-49.146c3.014-1.69 7.07-.508 8.734 2.494l35.476 63.786h-163.408l119.198-66.28zm83.279 289.079c0 10.63-8.651 19.281-19.281 19.281h-251.179c-10.63 0-19.281-8.651-19.281-19.281v-220.652c0-10.63 8.651-19.281 19.281-19.281h72.353l-30.823 17.141h-37.513c-3.554 0-6.427 2.879-6.427 6.427s2.873 6.427 6.427 6.427h266.443v63.201h-46.999c-21.826 0-39.589 17.764-39.589 39.589v2.764c0 21.826 17.764 39.589 39.589 39.589h46.999v64.795zm16.067-77.655h-63.066c-14.743 0-26.736-11.992-26.736-26.736v-2.764c0-14.743 11.992-26.736 26.736-26.736h63.066v56.236zm-43.381-27.59c0 7.841-6.35 14.19-14.19 14.19-7.841 0-14.19-6.35-14.19-14.19s6.35-14.19 14.19-14.19c7.841-.001 14.19 6.355 14.19 14.19z"/></symbol></svg>