<svg xmlns="http://www.w3.org/2000/svg" xmlns:xlink="http://www.w3.org/1999/xlink"><symbol id="icon-arrow-down"><path d="M345.441 248.292L151.154 442.573c-12.359 12.365-32.397 12.365-44.75 0-12.354-12.354-12.354-32.391 0-44.744L278.318 225.92 106.409 54.017c-12.354-12.359-12.354-32.394 0-44.748 12.354-12.359 32.391-12.359 44.75 0l194.287 194.284c6.177 6.18 9.262 14.271 9.262 22.366 0 8.099-3.091 16.196-9.267 22.373z"/></symbol><symbol id="icon-arrow" viewBox="0 0 451.846 451.847"><path d="M345.441 248.292l-194.287 194.281c-12.359 12.365-32.397 12.365-44.75 0-12.354-12.354-12.354-32.391 0-44.744l171.914-171.909-171.909-171.903c-12.354-12.359-12.354-32.394 0-44.748 12.354-12.359 32.391-12.359 44.75 0l194.287 194.284c6.177 6.18 9.262 14.271 9.262 22.366 0 8.099-3.091 16.196-9.267 22.373z"/></symbol><symbol id="icon-cancel" viewBox="0 0 21.9 21.9">
<path d="M14.1,11.3c-0.2-0.2-0.2-0.5,0-0.7l7.5-7.5c0.2-0.2,0.3-0.5,0.3-0.7s-0.1-0.5-0.3-0.7l-1.4-1.4C20,0.1,19.7,0,19.5,0  c-0.3,0-0.5,0.1-0.7,0.3l-7.5,7.5c-0.2,0.2-0.5,0.2-0.7,0L3.1,0.3C2.9,0.1,2.6,0,2.4,0S1.9,0.1,1.7,0.3L0.3,1.7C0.1,1.9,0,2.2,0,2.4  s0.1,0.5,0.3,0.7l7.5,7.5c0.2,0.2,0.2,0.5,0,0.7l-7.5,7.5C0.1,19,0,19.3,0,19.5s0.1,0.5,0.3,0.7l1.4,1.4c0.2,0.2,0.5,0.3,0.7,0.3  s0.5-0.1,0.7-0.3l7.5-7.5c0.2-0.2,0.5-0.2,0.7,0l7.5,7.5c0.2,0.2,0.5,0.3,0.7,0.3s0.5-0.1,0.7-0.3l1.4-1.4c0.2-0.2,0.3-0.5,0.3-0.7  s-0.1-0.5-0.3-0.7L14.1,11.3z"/>
</symbol><symbol id="icon-close" viewBox="0 0 21.9 21.9"><path d="M14.1 11.3c-.2-.2-.2-.5 0-.7l7.5-7.5c.2-.2.3-.5.3-.7s-.1-.5-.3-.7L20.2.3c-.2-.2-.5-.3-.7-.3-.3 0-.5.1-.7.3l-7.5 7.5c-.2.2-.5.2-.7 0L3.1.3C2.9.1 2.6 0 2.4 0s-.5.1-.7.3L.3 1.7c-.2.2-.3.5-.3.7s.1.5.3.7l7.5 7.5c.2.2.2.5 0 .7L.3 18.8c-.2.2-.3.5-.3.7s.1.5.3.7l1.4 1.4c.2.2.5.3.7.3s.5-.1.7-.3l7.5-7.5c.2-.2.5-.2.7 0l7.5 7.5c.2.2.5.3.7.3s.5-.1.7-.3l1.4-1.4c.2-.2.3-.5.3-.7s-.1-.5-.3-.7l-7.5-7.5z"/></symbol><symbol id="icon-edit" viewBox="0 0 32 32">
			<path d="m30.276 1.722c-1.108-1.111-2.586-1.722-4.155-1.722s-3.045 0.61-4.154 1.72l-17.673 17.571c-0.105 0.104-0.185 0.229-0.235 0.367l-4 11c-0.129 0.355-0.046 0.756 0.215 1.031 0.192 0.202 0.455 0.311 0.726 0.311 0.098 0 0.196-0.014 0.293-0.044l9.949-3.052c0.156-0.047 0.298-0.133 0.414-0.248l18.621-18.621c1.112-1.109 1.723-2.587 1.723-4.157-1e-3 -1.569-0.611-3.046-1.724-4.156zm-20.184 25.443l-3.724 1.144c-0.217-0.637-0.555-1.201-1.016-1.662-0.401-0.399-0.866-0.709-1.356-0.961l1.704-4.686h2.3v2c0 0.553 0.447 1 1 1h1.765l-0.673 3.165zm14.72-14.494l-12.184 12.184 0.35-1.647c0.062-0.296-0.012-0.603-0.202-0.837-0.19-0.235-0.475-0.371-0.776-0.371h-2v-2c0-0.552-0.448-1-1-1h-1.578l11.893-11.825 0.012 0.011c0.732-0.733 1.707-1.136 2.742-1.136s2.011 0.403 2.742 1.136 1.138 1.707 1.138 2.743-0.403 2.009-1.137 2.742zm4.05-4.05l-0.932 0.933c-0.09-1.429-0.683-2.761-1.703-3.782-1.021-1.022-2.354-1.614-3.787-1.703l0.938-0.931 2e-3 -2e-3c0.73-0.733 1.705-1.136 2.741-1.136s2.01 0.403 2.741 1.136c0.734 0.733 1.138 1.707 1.138 2.742 0 1.037-0.402 2.011-1.138 2.743zm-6.569-0.328l-10 10c-0.391 0.391-0.391 1.023 0 1.414 0.194 0.195 0.451 0.293 0.707 0.293s0.511-0.098 0.707-0.293l10-10c0.391-0.391 0.391-1.023 0-1.414-0.392-0.391-1.023-0.391-1.414 0z"/>
</symbol><symbol id="icon-home" viewBox="0 0 486.988 486.988"><path d="M16.822 284.968h39.667v158.667c0 9.35 7.65 17 17 17h116.167c9.35 0 17-7.65 17-17v-116.167h70.833v116.167c0 9.35 7.65 17 17 17h110.5c9.35 0 17-7.65 17-17v-158.667h48.167c6.8 0 13.033-4.25 15.583-10.483 2.55-6.233 1.133-13.6-3.683-18.417l-221.567-224.683c-6.517-6.517-17.283-6.8-23.8-.283l-231.483 224.683c-5.1 4.817-6.517 12.183-3.967 18.7 2.55 6.516 8.783 10.483 15.583 10.483zm231.2-217.6l181.333 183.6h-24.367c-9.35 0-17 7.65-17 17v158.667h-76.5v-116.167c0-9.35-7.65-17-17-17h-104.832c-9.35 0-17 7.65-17 17v116.167h-82.167v-158.667c0-9.35-7.65-17-17-17h-14.733l189.266-183.6z"/></symbol><symbol id="icon-info" viewBox="0 0 512 512"><circle cx="256" cy="378.5" r="25"/><path d="M256 0c-141.484 0-256 114.497-256 256 0 141.484 114.497 256 256 256 141.484 0 256-114.497 256-256 0-141.484-114.497-256-256-256zm0 472c-119.377 0-216-96.607-216-216 0-119.377 96.607-216 216-216 119.377 0 216 96.607 216 216 0 119.377-96.607 216-216 216zM256 128.5c-44.112 0-80 35.888-80 80 0 11.046 8.954 20 20 20s20-8.954 20-20c0-22.056 17.944-40 40-40s40 17.944 40 40-17.944 40-40 40c-11.046 0-20 8.954-20 20v50c0 11.046 8.954 20 20 20s20-8.954 20-20v-32.531c34.466-8.903 60-40.26 60-77.469 0-44.112-35.888-80-80-80z"/></symbol><symbol id="icon-logout" viewBox="0 0 512 512"><path d="M255.15 468.625h-191.363c-11.737 0-21.262-9.526-21.262-21.262v-382.725c0-11.737 9.526-21.262 21.262-21.262h191.363c11.758 0 21.262-9.504 21.262-21.262s-9.504-21.264-21.262-21.264h-191.363c-35.168 0-63.787 28.62-63.787 63.788v382.724c0 35.168 28.619 63.787 63.787 63.787h191.363c11.758 0 21.262-9.504 21.262-21.262 0-11.758-9.504-21.262-21.262-21.262zM505.664 240.861l-129.276-127.575c-8.335-8.25-21.815-8.143-30.065.213s-8.165 21.815.213 30.065l92.385 91.173h-247.559c-11.758 0-21.262 9.504-21.262 21.262 0 11.758 9.504 21.263 21.262 21.263h247.559l-92.385 91.173c-8.377 8.25-8.441 21.709-.213 30.065 4.167 4.21 9.653 6.336 15.139 6.336 5.401 0 10.801-2.041 14.926-6.124l129.276-127.575c4.04-3.997 6.336-9.441 6.336-15.139 0-5.696-2.275-11.118-6.336-15.137z"/></symbol><symbol id="icon-megaphone" viewBox="0 0 512 512"><path d="M449.511 137.648v-82.38c0-9.072-4.668-17.227-12.487-21.814-7.849-4.605-17.29-4.7-25.251-.247-76.024 42.516-158.725 67.345-245.805 73.802-.667.049-79.372.393-79.372.393-19.767 0-36.105 14.923-38.366 34.091h-16.155c-17.685 0-32.075 14.388-32.075 32.074v70.468c0 17.686 14.39 32.075 32.075 32.075h16.153c1.628 13.795 10.544 25.383 22.785 30.799l57.485 158.648c3.593 9.875 13.067 16.511 23.578 16.511h57.687c8.178 0 15.86-3.999 20.551-10.697 4.691-6.7 5.822-15.287 3.03-22.96l-49.389-136.237c80.482 8.361 157.039 32.601 227.817 72.183 3.905 2.184 8.166 3.273 12.42 3.273 4.417-.001 8.83-1.175 12.829-3.521 7.819-4.588 12.489-12.742 12.489-21.816v-82.38c35.201-4.56 62.49-34.709 62.49-71.132 0-36.424-27.289-66.574-62.489-71.133zm-401.56 113.724h-15.876c-4.047 0-7.338-3.291-7.338-7.338v-70.467c0-4.044 3.291-7.337 7.338-7.337h15.876v85.142zm32.979 32.873c-4.85-2.174-8.242-7.039-8.242-12.688v-125.513h.001c0-7.667 6.239-13.905 13.906-13.905h67.333v153.324s-67.92-.026-68.213-.044c-2.481-.287-3.003-.415-4.785-1.174zm129.161 172.608c.04.101.066.173-.041.324-.105.151-.183.151-.288.151h-57.687c-.147 0-.282-.093-.327-.215l-53.233-146.914h58.411l53.165 146.654zm214.683-94.559c0 .179 0 .322-.267.479-.318.184-.508.079-.66-.006-76.034-42.52-158.469-68.045-245.182-75.96v-156.04c86.72-7.927 169.155-33.454 245.179-75.97.156-.085.349-.19.663-.006.267.157.267.298.267.477v307.026zm24.737-107.421v-92.185c21.503 4.314 37.752 23.339 37.752 46.092 0 22.754-16.25 41.78-37.752 46.093z"/></symbol><symbol id="icon-message" viewBox="0 0 511.626 511.626"><path d="M49.106 178.729c6.472 4.567 25.981 18.131 58.528 40.685 32.548 22.554 57.482 39.92 74.803 52.099 1.903 1.335 5.946 4.237 12.131 8.71 6.186 4.476 11.326 8.093 15.416 10.852 4.093 2.758 9.041 5.852 14.849 9.277 5.806 3.422 11.279 5.996 16.418 7.7 5.14 1.718 9.898 2.569 14.275 2.569h.575c4.377 0 9.137-.852 14.277-2.569 5.137-1.704 10.615-4.281 16.416-7.7 5.804-3.429 10.752-6.52 14.845-9.277 4.093-2.759 9.229-6.376 15.417-10.852 6.184-4.477 10.232-7.375 12.135-8.71 17.508-12.179 62.051-43.11 133.615-92.79 13.894-9.703 25.502-21.411 34.827-35.116 9.332-13.699 13.993-28.07 13.993-43.105 0-12.564-4.523-23.319-13.565-32.264-9.041-8.947-19.749-13.418-32.117-13.418h-420.265c-14.655 0-25.933 4.948-33.832 14.844-7.898 9.898-11.847 22.27-11.847 37.115 0 11.991 5.236 24.985 15.703 38.974 10.466 13.99 21.604 24.983 33.403 32.976zM483.072 209.275c-62.424 42.251-109.824 75.087-142.177 98.501-10.849 7.991-19.65 14.229-26.409 18.699-6.759 4.473-15.748 9.041-26.98 13.702-11.228 4.668-21.692 6.995-31.401 6.995h-.578c-9.707 0-20.177-2.327-31.405-6.995-11.228-4.661-20.223-9.229-26.98-13.702-6.755-4.47-15.559-10.708-26.407-18.699-25.697-18.842-72.995-51.68-141.896-98.501-10.852-7.228-20.464-15.513-28.839-24.838v226.685c0 12.57 4.471 23.319 13.418 32.265 8.945 8.949 19.701 13.422 32.264 13.422h420.266c12.56 0 23.315-4.473 32.261-13.422 8.949-8.949 13.418-19.694 13.418-32.265v-226.685c-8.186 9.132-17.7 17.417-28.555 24.838z"/></symbol><symbol id="icon-music" viewBox="0 0 384 384"><path d="M22.176 142.902c8.223 3.227 17.512-.855 20.727-9.078 24.168-61.855 82.691-101.824 149.098-101.824s124.93 39.969 149.098 101.824c2.461 6.32 8.512 10.176 14.91 10.176 1.93 0 3.902-.352 5.816-1.105 8.23-3.215 12.297-12.496 9.086-20.727-29.016-74.207-99.23-122.168-178.91-122.168s-149.895 47.961-178.902 122.176c-3.219 8.23.848 17.512 9.078 20.727zm0 0M319.113 177.48c-7.242-63.762-61.449-113.48-127.113-113.48s-119.871 49.719-127.113 113.48c-36.902 7.086-64.887 39.574-64.887 78.52 0 44.113 35.887 80 80 80 8.832 0 16-7.168 16-16v-128c0-52.938 43.063-96 96-96s96 43.063 96 96v144c0 8.824-7.176 16-16 16h-32c-8.824 0-16-7.176-16-16 0-8.832-7.168-16-16-16s-16 7.168-16 16c0 26.473 21.527 48 48 48h32c26.473 0 48-21.527 48-48v-1.609c36.473-7.438 64-39.758 64-78.391 0-38.945-27.984-71.434-64.887-78.52zm-287.113 78.52c0-20.855 13.383-38.594 32-45.199v90.398c-18.617-6.605-32-24.344-32-45.199zm288 45.199v-90.398c18.617 6.605 32 24.344 32 45.199s-13.383 38.594-32 45.199zm0 0"/></symbol><symbol id="icon-pencil"><path d="M30.276 1.722C29.168.611 27.69 0 26.121 0s-3.045.61-4.154 1.72L4.294 19.291a.991.991 0 0 0-.235.367l-4 11A1.003 1.003 0 0 0 1 32a.987.987 0 0 0 .293-.044l9.949-3.052a.999.999 0 0 0 .414-.248l18.621-18.621A5.833 5.833 0 0 0 32 5.878a5.835 5.835 0 0 0-1.724-4.156zM10.092 27.165l-3.724 1.144a4.272 4.272 0 0 0-1.016-1.662 5.404 5.404 0 0 0-1.356-.961L5.7 21H8v2a1 1 0 0 0 1 1h1.765l-.673 3.165zm14.72-14.494L12.628 24.855l.35-1.647A1 1 0 0 0 12 22h-2v-2a1 1 0 0 0-1-1H7.422L19.315 7.175l.012.011c.732-.733 1.707-1.136 2.742-1.136s2.011.403 2.742 1.136 1.138 1.707 1.138 2.743a3.848 3.848 0 0 1-1.137 2.742zm4.05-4.05l-.932.933a5.837 5.837 0 0 0-1.703-3.782 5.826 5.826 0 0 0-3.787-1.703l.938-.931.002-.002C24.11 2.403 25.085 2 26.121 2s2.01.403 2.741 1.136A3.85 3.85 0 0 1 30 5.878a3.84 3.84 0 0 1-1.138 2.743zm-6.569-.328l-10 10a.999.999 0 1 0 1.414 1.414l10-10a.999.999 0 1 0-1.414-1.414z"/></symbol><symbol id="icon-pie" viewBox="0 0 476.3 476.3"><path d="M411.75 250.2h-185.6v-185.6c0-7.5-6-13.5-13.5-13.5-117.2 0-212.6 95.4-212.6 212.6s95.4 212.6 212.6 212.6 212.6-95.4 212.6-212.6c0-7.4-6.1-13.5-13.5-13.5zm-199.1 199.1c-102.3 0-185.6-83.3-185.6-185.6 0-97.8 76-178.2 172.1-185.1v185.1c0 7.5 6 13.5 13.5 13.5h185.1c-6.9 96.1-87.3 172.1-185.1 172.1zM476.25 211.9c-.2-51.6-19.1-101.3-53.2-140-40.4-45.7-98.4-71.9-159.4-71.9-7.5 0-13.5 6-13.5 13.5v199.1c0 7.5 6 13.5 13.5 13.5h199.1c7.5 0 13.5-6 13.5-13.5v-.7zm-199.1-12.7v-171.6c48.2 3.5 93.4 25.8 125.6 62.3 27 30.5 43 68.9 46 109.3h-171.6z"/></symbol><symbol id="icon-pie.svg" viewBox="0 0 476.3 476.3"><path d="M411.75 250.2h-185.6v-185.6c0-7.5-6-13.5-13.5-13.5-117.2 0-212.6 95.4-212.6 212.6s95.4 212.6 212.6 212.6 212.6-95.4 212.6-212.6c0-7.4-6.1-13.5-13.5-13.5zm-199.1 199.1c-102.3 0-185.6-83.3-185.6-185.6 0-97.8 76-178.2 172.1-185.1v185.1c0 7.5 6 13.5 13.5 13.5h185.1c-6.9 96.1-87.3 172.1-185.1 172.1zM476.25 211.9c-.2-51.6-19.1-101.3-53.2-140-40.4-45.7-98.4-71.9-159.4-71.9-7.5 0-13.5 6-13.5 13.5v199.1c0 7.5 6 13.5 13.5 13.5h199.1c7.5 0 13.5-6 13.5-13.5v-.7zm-199.1-12.7v-171.6c48.2 3.5 93.4 25.8 125.6 62.3 27 30.5 43 68.9 46 109.3h-171.6z"/></symbol><symbol id="icon-profile" viewBox="0 0 563.43 563.43"><path d="M280.79 314.559c83.266 0 150.803-67.538 150.803-150.803s-67.538-150.341-150.803-150.341-150.803 67.538-150.803 150.341 67.537 150.803 150.803 150.803zm0-261.824c61.061 0 111.021 49.959 111.021 111.021s-49.96 111.02-111.021 111.02-111.021-49.959-111.021-111.021 49.959-111.02 111.021-111.02zM19.891 550.015h523.648c11.102 0 19.891-8.789 19.891-19.891 0-104.082-84.653-189.198-189.198-189.198h-185.034c-104.082 0-189.198 84.653-189.198 189.198 0 11.102 8.789 19.891 19.891 19.891zm169.307-169.307h185.034c75.864 0 138.313 56.436 148.028 129.524h-481.09c9.714-72.625 72.164-129.524 148.028-129.524z"/></symbol><symbol id="icon-shop" viewBox="0 0 486.569 486.569"><path d="M146.069 320.369h268.1c30.4 0 55.2-24.8 55.2-55.2v-114c0-.2 0-.4-.1-.6l-.1-.7s-.1-.4-.1-.6c-.1-.2-.1-.4-.2-.7l-.2-.6-.2-.6c-.1-.2-.2-.4-.3-.7-.1-.2-.2-.4-.3-.5l-.3-.6-.3-.5-.4-.6c-.1-.2-.2-.3-.4-.5l-.4-.5s-.3-.3-.4-.5l-.4-.4-.5-.5-.5-.4-.6-.4-.5-.3s-.4-.2-.6-.4l-.6-.3-.6-.3-.6-.3s-.4-.1-.6-.2c-.2-.1-.5-.2-.7-.2s-.4-.1-.5-.1c-.3-.1-.5-.1-.8-.1-.1 0-.2-.1-.4-.1l-339.8-46.9v-47.4c0-.5 0-1-.1-1.4 0-.1 0-.2-.1-.4l-.1-.9-.2-.8-.1-.5-.3-.9-.1-.4c-.1-.3-.2-.5-.4-.8l-.2-.4c-.1-.2-.2-.4-.4-.6l-.3-.5s-.2-.3-.3-.5-.3-.4-.4-.6l-.3-.3-.6-.6-.3-.3c-.2-.2-.4-.4-.7-.6l-.4-.3-.6-.5c-.3-.2-.6-.4-.8-.5l-.3-.2-1.3-.6-73.7-31c-6.9-2.9-14.8.3-17.7 7.2s.3 14.8 7.2 17.7l65.4 27.6v295.8c0 28 21 51.2 48.1 54.7-4.9 8.2-7.8 17.8-7.8 28 0 30.1 24.5 54.5 54.5 54.5s54.5-24.5 54.5-54.5c0-10-2.7-19.5-7.5-27.5h121.4c-4.8 8.1-7.5 17.5-7.5 27.5 0 30.1 24.5 54.5 54.5 54.5s54.5-24.5 54.5-54.5-24.5-54.5-54.5-54.5h-255c-15.6 0-28.2-12.7-28.2-28.2v-36.6c8.2 4.8 17.9 7.6 28.2 7.6zm67.2 111.6c0 15.2-12.4 27.5-27.5 27.5s-27.5-12.4-27.5-27.5 12.4-27.5 27.5-27.5 27.5 12.3 27.5 27.5zm215.4 0c0 15.2-12.4 27.5-27.5 27.5s-27.5-12.4-27.5-27.5 12.4-27.5 27.5-27.5 27.5 12.3 27.5 27.5zm-14.5-138.6h-268.1c-15.6 0-28.2-12.7-28.2-28.2v-145.9l324.5 44.7v101.1c0 15.7-12.7 28.3-28.2 28.3z"/></symbol><symbol id="icon-wallet" viewBox="0 0 334.877 334.877"><path d="M333.196 155.999h-16.067v-73.909c0-17.719-14.415-32.134-32.134-32.134h-21.761l-22.269-40.039c-3.394-6.119-9.853-9.917-16.858-9.917-3.265 0-6.504.842-9.364 2.429l-85.464 47.526h-95.464c-17.719 0-32.134 14.415-32.134 32.134v220.653c0 17.719 14.415 32.134 32.134 32.134h251.18c17.719 0 32.134-14.415 32.134-32.134v-64.802h16.067v-81.941zm-48.201-93.19c9.897 0 17.982 7.519 19.068 17.14h-24.152l-9.525-17.14h14.609zm-63.999-49.146c3.014-1.69 7.07-.508 8.734 2.494l35.476 63.786h-163.408l119.198-66.28zm83.279 289.079c0 10.63-8.651 19.281-19.281 19.281h-251.179c-10.63 0-19.281-8.651-19.281-19.281v-220.652c0-10.63 8.651-19.281 19.281-19.281h72.353l-30.823 17.141h-37.513c-3.554 0-6.427 2.879-6.427 6.427s2.873 6.427 6.427 6.427h266.443v63.201h-46.999c-21.826 0-39.589 17.764-39.589 39.589v2.764c0 21.826 17.764 39.589 39.589 39.589h46.999v64.795zm16.067-77.655h-63.066c-14.743 0-26.736-11.992-26.736-26.736v-2.764c0-14.743 11.992-26.736 26.736-26.736h63.066v56.236zm-43.381-27.59c0 7.841-6.35 14.19-14.19 14.19-7.841 0-14.19-6.35-14.19-14.19s6.35-14.19 14.19-14.19c7.841-.001 14.19 6.355 14.19 14.19z"/></symbol><symbol id="icon-warning" viewBox="0 0 52 52"><path d="M26 0C11.664 0 0 11.663 0 26s11.664 26 26 26 26-11.663 26-26S40.336 0 26 0zm0 50C12.767 50 2 39.233 2 26S12.767 2 26 2s24 10.767 24 24-10.767 24-24 24z"/><path d="M26 10a1 1 0 0 0-1 1v22a1 1 0 1 0 2 0V11a1 1 0 0 0-1-1zM26 37a1 1 0 0 0-1 1v2a1 1 0 1 0 2 0v-2a1 1 0 0 0-1-1z"/></symbol></svg>